<svg xmlns="http://www.w3.org/2000/svg" width="557" height="60" viewBox="0 0 557 60"><style>.a{fill:#FFF;}</style><path d="M557 60c-185.3 0-370.7 0-555.9 0 0-19.7 0-39.3 0-58.9 185.3 0 370.7 0 555.9 0C557 20.7 557 40.4 557 60zM8 49.6c178.7 0 356.7 0 534.7 0 0-14.3 0-28.2 0-42.3 -178.3 0-356.3 0-534.5 0 -0.1 1.2-0.2 2.2-0.2 3.1C8 23.4 8 36.4 8 49.6z" class="a"/><path d="M8 49.6c0-13.3 0-26.2 0-39.2 0-1 0.1-1.9 0.2-3.1 178.3 0 356.3 0 534.5 0 0 14.1 0 28 0 42.3C364.7 49.6 186.7 49.6 8 49.6zM385.5 39.8c8.6 0 18.4 0 28.5 0 -5.5-3.9-5.5-17.3-0.3-21.7 -9.9 0-19.7 0-30.9 0 6.1 2.2 5.1 5.9 4.4 9.6 -3.2 0-6.2 0-10.3 0 1.1-3.7 2.1-6.8 3-9.6 -3.3 0-7.6 0-10.5 0 0.7 3.6 2.1 7.3 2.1 11 0 3.6-1.3 7.3-2.1 10.7 3 0 7.2 0 10.1 0 -0.7-3.3-1.5-6.7-2.4-10.4 4.2 0 7.3 0 11.4 0C387.4 33.4 386.4 36.7 385.5 39.8zM196.9 18.6c6.3 2 3.9 6.9 3.9 10.6 0 3.6-1.3 7.2-2 10.4 2 0 5.1 0 8.7 0 -4.6-3.5-5.4-6.9-3.2-13.4 1.9 3.8 3.6 7.3 5.5 10.8 0.6 1.1 1.6 1.9 2.4 2.8 0.8-0.9 1.9-1.6 2.5-2.7 1.9-3.5 3.6-7 5.4-10.6 0.1 4.8 3.5 10.2-3.4 13.2 5.3 0 9.8 0 14.4 0 -5.5-4-5.4-17.7-0.2-21.6 -8.9-0.6-8.9-0.6-12.7 7 -1.1 2.3-2.3 4.5-3.6 7.1C209.7 26 210 14.1 196.9 18.6zM462.4 30.3c1.2-0.3 3.2-0.3 4.3-1.2 2-1.6 3.5-3.8 5.2-5.7 -2.1-1.8-4.2-4.9-6.5-5.1 -7-0.7-14.1-0.2-21.7-0.2 5.8 4 5.8 17.7 0.7 21.7 4.4 0 8.9 0 11.9 0 -0.9-2.9-1.9-5.9-2.9-9 0.7-0.4 1.3-0.9 2-1.3 1.7 1.6 4 2.9 5 4.8 3.1 5.8 7.6 6.9 13.2 5.4C469.8 36.5 466 33.4 462.4 30.3zM427.9 29c-0.4-0.2-0.8-0.4-1.2-0.7 0-2.9 0-5.8 0-8.9 6.6-1.4 10.4 1.8 12.4 8.2 0.4-0.3 0.8-0.6 1.1-0.9 0-2.8 0-5.5 0-8.4 -7.8 0-15.4 0-23.4 0 4.8 4.1 4.8 17.2 0.3 21.5 7.9 0 15.8 0 23.6 0 0-3 0-5.6 0-8.3 -3.7 4.6-7.2 8.8-13.9 7.2 0-2.9 0-5.5 0-9.5 2.7 3 4.4 5 6.6 7.5 0-5.3 0-9.6 0-15C431 24.6 429.4 26.8 427.9 29zM180.8 40.2c0-0.1 0-0.1 0-0.2 1.2 0 2.3 0.1 3.5 0 4.9-0.5 9.8-4.8 10.4-9.3 0.7-5.1-1.9-9.2-6.2-10.8 -4.1-1.5-9-1.9-13.3-1.1 -5.4 1-8.3 5.7-8.2 10.4 0.1 4.7 3.3 8.8 8.5 10.4C177.1 40 179 40 180.8 40.2zM146.4 18.5c0.6 0.3 1.2 0.7 1.9 1 0 3.8-0.2 7.6 0.1 11.5 0.3 4.8-0.3 8.7-6.3 8.7 6.3 0 12.5 0 17.7 0 -1.3-1.1-4.4-2.4-4.6-4.1 -0.7-5.3-0.2-10.7-0.2-16.1 0.6-0.3 1.2-0.6 1.7-0.8 2.6 3.4 5.2 6.7 8.1 10.5 0-3.9 0-7.4 0-10.8 -9.1 0-17.8 0-26.1 0 0 3.8 0 7.1 0 10.5C141.3 25.2 143.9 21.8 146.4 18.5zM476.4 38.5c3.5 0.4 6.4 0.9 9.3 1.2 2.5 0.2 5.4 1 7.4 0 2.4-1.1 5.1-3.6 5.6-6 0.3-1.6-2.4-4.6-4.5-5.9 -2.6-1.5-6-1.7-8.8-2.8 -1.6-0.6-2.8-2.1-4.2-3.2 2.1-0.7 4.6-2.6 6.2-2 3.4 1.2 6.4 3.7 9.7 5.8 0-2.1 0-4.3 0-6 -2.2-0.2-3.9-0.4-5.6-0.6 -2.9-0.3-6.1-1.5-8.7-0.8 -2.5 0.6-5.4 2.8-6.4 5 -1.3 3.1 1.5 5.1 4.4 6 3.3 1 6.7 1.7 9.9 3 1.4 0.6 2.3 2.6 3.4 3.9 -1.8 0.9-4.2 3-5.3 2.5 -3.5-1.8-6.6-4.5-9.8-6.9 -0.7-0.6-1.4-1.2-2.6-2.1C476.4 33.6 476.4 36.6 476.4 38.5zM322 40c8.5 0 14.4-4.7 13.9-11.3 -0.4-6.6-7.1-11.1-15.8-10.7 -6.3 0.3-11.5 5.6-11.2 11.5C309.1 35.7 314.5 40 322 40zM365 18.4c-9 0-17.5 0-25.9 0 0 3.6 0 6.8 0 10 2.2-4.3 4-8.7 10.1-9.2 0 4.3-0.3 8.3 0.1 12.3 0.4 4.8-0.7 8.1-6.2 8.6 3 0 6 0 9 0 3 0 5.9 0 8.2 0 -1.7-1.4-4.8-2.7-5-4.4 -0.7-5.4-0.2-10.8-0.2-17.5 2.7 1.8 4.8 2.7 6.2 4.3 1.5 1.7 2.2 4 3.8 7C365 25.1 365 21.9 365 18.4zM134.3 19.8c-4.2-0.6-8.2-1.4-12.3-1.8 -3.8-0.3-7.2 0.8-7.9 5 -0.9 4.7 3 5.8 6.2 6.9 3.1 1.1 6.4 1.6 9.4 2.8 1 0.4 2 1.8 2.2 2.9 0.1 0.7-1.1 2-2 2.4 -1.4 0.5-3.5 1.1-4.6 0.5 -3.9-2.2-7.5-4.8-11-7.1 0 2.2 0 5.2 0 7.2 2.9 0.2 5.4 0.4 7.9 0.6 2.8 0.2 5.9 1.5 8.1 0.6 2.3-0.9 4.7-3.8 5.3-6.2 0.4-1.4-2.3-4.3-4.3-5.4 -2.6-1.5-5.9-1.7-8.8-2.9 -1.7-0.7-3-2.3-4.5-3.4 2.1-0.8 4.7-2.7 6.4-2.1 3.5 1.1 6.5 3.6 9.8 5.5C134.3 23.6 134.3 21.6 134.3 19.8zM281.7 18.2c4.8 3.9 4.9 17.4 0.5 21.5 7.9 0 16 0 24.6 0 -0.1-3.4-0.3-6.5-0.4-9.6 -0.5-0.3-1-0.6-1.5-0.9 -2.3 6.2-5.4 11.2-13.5 9.2 2.3-6.7-3.5-14.7 4.2-20.2C291.4 18.2 286.8 18.2 281.7 18.2zM82.3 18c0.9 2.4 2 4.9 2.5 7.4 0.9 3.9 0.4 8.4 2.2 11.8 1.9 3.6 10.5 3.8 15.3 1.9 4.8-1.9 4.8-5.7 4.7-9.8 -0.1-4-1.1-8.5 5.1-11 -4.8 0-8.3 0-12.2 0 5 3.1 7.2 13.9 3.5 17.6 -1.8 1.7-5.2 2.5-7.9 2.4 -3.1-0.1-4.8-2.6-4.6-6 0.1-2.2 0.1-4.3 0-6.5 -0.3-3.8 0.1-7 5.1-7.5 -4.5-0.3-8.6-0.3-12.8-0.3C82.6 18 81.8 18.1 82.3 18zM76.8 19.5c-3.1-0.4-5.4-0.4-7.5-1.1 -5.9-2-13.2 1.3-15.6 7.3 -2.3 5.5 0.5 11.4 7.2 13.6 3 1 6.6 0.9 9.7 0.5 3.4-0.5 5.8-4.1 6.1-7.4 -8.6 7.4-10.6 8.1-14.1 4.9 -2.9-2.6-3.9-12.5-0.6-15.4 8.3-7.4 10.1 3.5 15.2 6.6 0-2.6 0-4.6 0-6.5C77 20.6 76.8 19.5 76.8 19.5zM278.3 31.6c-9.1 8.1-11.7 8.9-15.2 5.1 -2.9-3.1-3.1-13.7 0.3-15.9 7.9-5 9.8 3.5 14.2 7.6 0-3.9 0-7.1 0-9.6 -2.6 0-4.7 0.6-6.4-0.1 -6.3-2.5-13.9 0.5-16.5 6.9 -2.3 5.6 1 11.7 7.6 14C269.4 42.1 275.8 39.2 278.3 31.6z"/><path d="M385.5 39.8c0.9-3.1 1.9-6.4 3.1-10.4 -4.2 0-7.2 0-11.4 0 0.8 3.7 1.6 7.1 2.4 10.4 -2.8 0-7.1 0-10.1 0 0.7-3.4 2.1-7.1 2.1-10.7 0-3.7-1.4-7.4-2.1-11 2.9 0 7.2 0 10.5 0 -0.9 2.8-1.8 5.9-3 9.6 4.1 0 7.1 0 10.3 0 0.7-3.7 1.7-7.4-4.4-9.6 11.2 0 21 0 30.9 0 -5.3 4.4-5.2 17.8 0.3 21.7C403.9 39.8 394.1 39.8 385.5 39.8zM404 28.8c0-1.7 0-3.3 0-5 0.1-3.7-2-5.1-5.2-5.1 -3.4 0.1-5.1 1.8-4.8 5.4 0.2 3.3 0.2 6.6 0 9.9 -0.2 3.4 1.6 4.9 4.6 5.1 3.2 0.1 5.5-1.1 5.4-4.9C404 32.5 404 30.7 404 28.8z" class="a"/><path d="M196.9 18.6c13-4.5 12.7 7.4 17.7 13.7 1.3-2.6 2.5-4.9 3.6-7.1 3.8-7.6 3.8-7.6 12.7-7 -5.3 4-5.3 17.7 0.2 21.7 -4.7 0-9.1 0-14.4 0 7-3 3.5-8.4 3.4-13.2 -1.8 3.5-3.5 7.1-5.4 10.6 -0.6 1-1.6 1.8-2.5 2.7 -0.8-0.9-1.9-1.7-2.4-2.8 -1.9-3.5-3.6-7.1-5.5-10.8 -2.2 6.5-1.4 9.9 3.2 13.4 -3.6 0-6.8 0-8.7 0 0.7-3.2 2-6.8 2-10.4C200.9 25.6 203.3 20.6 196.9 18.6z" class="a"/><path d="M462.4 30.3c3.7 3.1 7.4 6.2 11.1 9.3 -5.6 1.5-10.1 0.4-13.2-5.4 -1-1.9-3.3-3.2-5-4.8 -0.7 0.4-1.3 0.9-2 1.3 1 3 2 6.1 2.9 9 -3.1 0-7.5 0-11.9 0 5.1-4 5.2-17.7-0.7-21.7 7.6 0 14.7-0.4 21.7 0.2 2.3 0.2 4.3 3.3 6.5 5.1 -1.7 1.9-3.2 4.1-5.2 5.7C465.6 30 463.6 30 462.4 30.3zM454.5 30c3.6-1.3 6.9-2.2 9.8-3.8 0.7-0.4 0.5-4.4-0.2-4.8 -3-1.4-6.3-2.1-10.1-3.2 0 3.8 0 6.1 0 8.4C454.1 27.3 454.2 27.9 454.5 30z" class="a"/><path d="M427.9 29c1.6-2.2 3.2-4.3 5.4-7.4 0 5.3 0 9.7 0 15 -2.2-2.5-3.9-4.4-6.6-7.5 0 4.1 0 6.6 0 9.5 6.6 1.6 10.1-2.6 13.9-7.2 0 2.7 0 5.3 0 8.3 -7.8 0-15.7 0-23.6 0 4.5-4.2 4.6-17.4-0.3-21.5 8 0 15.7 0 23.4 0 0 2.9 0 5.6 0 8.4 -0.4 0.3-0.8 0.6-1.1 0.9 -2-6.4-5.7-9.6-12.4-8.2 0 3.1 0 6 0 8.9C427 28.5 427.5 28.7 427.9 29z" class="a"/><path d="M180.8 40.2c-1.8-0.2-3.7-0.1-5.4-0.7 -5.2-1.6-8.4-5.7-8.5-10.4 -0.1-4.7 2.9-9.4 8.2-10.4 4.3-0.8 9.2-0.3 13.3 1.1 4.3 1.6 6.9 5.7 6.2 10.8 -0.6 4.5-5.5 8.8-10.4 9.3 -1.1 0.1-2.3 0-3.5 0C180.8 40.1 180.8 40.1 180.8 40.2zM174.1 29.1c0 5.1 3.3 9.7 6.7 9.8 3.4 0 6.7-4.7 6.8-9.7 0.1-4.8-3.2-9.8-6.5-10C177.4 18.9 174 23.8 174.1 29.1z" class="a"/><path d="M146.4 18.5c-2.5 3.3-5.1 6.6-7.9 10.3 0-3.3 0-6.7 0-10.5 8.3 0 17 0 26.1 0 0 3.4 0 6.9 0 10.8 -2.9-3.7-5.5-7.1-8.1-10.5 -0.6 0.3-1.1 0.6-1.7 0.9 0 5.4-0.4 10.8 0.2 16.1 0.2 1.7 3.3 3 4.6 4.1 -5.1 0-11.4 0-17.7 0 6 0 6.6-3.9 6.3-8.7 -0.3-3.8-0.1-7.6-0.1-11.4C147.7 19.2 147 18.9 146.4 18.5z" class="a"/><path d="M476.4 38.5c0-1.9 0-5 0-8.9 1.1 0.9 1.8 1.6 2.6 2.1 3.2 2.4 6.3 5.1 9.8 6.9 1.1 0.5 3.5-1.6 5.3-2.5 -1.1-1.4-2-3.3-3.4-3.9 -3.1-1.4-6.6-2-9.9-3 -2.9-0.9-5.8-2.9-4.4-6 1-2.2 3.9-4.4 6.4-5 2.7-0.7 5.8 0.5 8.7 0.8 1.7 0.2 3.4 0.4 5.6 0.6 0 1.7 0 3.9 0 6 -3.3-2.1-6.3-4.6-9.7-5.8 -1.6-0.6-4.1 1.3-6.2 2 1.4 1.1 2.6 2.6 4.2 3.2 2.9 1.1 6.3 1.3 8.8 2.8 2.1 1.2 4.9 4.2 4.5 5.9 -0.5 2.4-3.2 4.8-5.6 6 -2 1-4.9 0.2-7.4 0C482.8 39.5 479.9 39 476.4 38.5z" class="a"/><path d="M322 40c-7.5 0-12.9-4.3-13.2-10.5 -0.2-5.9 4.9-11.2 11.2-11.5 8.7-0.4 15.4 4.1 15.8 10.7C336.4 35.3 330.5 40 322 40zM329.5 29.5c0.3-5-2.9-10-6.7-10.4 -3.6-0.4-7.1 3.8-7.6 9 -0.5 5 2.9 10.4 6.7 10.8C325.7 39.3 329.1 35 329.5 29.5z" class="a"/><path d="M365 18.4c0 3.6 0 6.7 0 11.1 -1.6-3-2.3-5.3-3.8-7 -1.4-1.6-3.6-2.5-6.2-4.3 0 6.6-0.4 12.1 0.2 17.5 0.2 1.7 3.3 3 5 4.4 -2.2 0-5.2 0-8.2 0 -3 0-6 0-9 0 5.5-0.5 6.5-3.8 6.2-8.6 -0.3-4-0.1-8-0.1-12.3 -6 0.5-7.8 4.9-10.1 9.2 0-3.2 0-6.4 0-10C347.5 18.4 356 18.4 365 18.4z" class="a"/><path d="M134.3 19.8c0 1.7 0 3.8 0 5.3 -3.3-1.9-6.3-4.4-9.8-5.5 -1.7-0.6-4.2 1.3-6.4 2.1 1.5 1.2 2.8 2.7 4.5 3.4 2.8 1.2 6.2 1.4 8.8 2.9 2 1.1 4.6 4 4.3 5.4 -0.6 2.4-3 5.2-5.3 6.2 -2.3 0.9-5.4-0.3-8.1-0.6 -2.5-0.2-5-0.4-7.9-0.6 0-1.9 0-4.9 0-7.2 3.4 2.3 7.1 5 11 7.1 1.1 0.6 3.1 0 4.6-0.5 0.9-0.3 2.1-1.7 2-2.4 -0.2-1.1-1.2-2.5-2.2-2.9 -3.1-1.1-6.3-1.7-9.4-2.8 -3.3-1.1-7.1-2.2-6.2-6.9 0.8-4.2 4.2-5.4 7.9-5C126.1 18.4 130.1 19.2 134.3 19.8z" class="a"/><path d="M281.7 18.2c5.1 0 9.7 0 13.9 0 -7.7 5.5-1.9 13.6-4.2 20.2 8.2 2 11.2-3 13.5-9.2 0.5 0.3 1 0.6 1.5 0.9 0.1 3.1 0.3 6.1 0.4 9.6 -8.6 0-16.7 0-24.6 0C286.5 35.6 286.5 22 281.7 18.2z" class="a"/><path d="M82.3 18c-0.4 0 0.3-0.1 1.1-0.1 4.1 0 8.3 0 12.8 0.3 -5.1 0.5-5.4 3.8-5.1 7.5 0.2 2.2 0.1 4.3 0 6.5 -0.2 3.4 1.5 5.9 4.6 6 2.6 0.1 6.1-0.7 7.9-2.4 3.7-3.7 1.4-14.6-3.5-17.6 3.9 0 7.4 0 12.2 0 -6.2 2.5-5.1 7-5.1 11 0.1 4.1 0.1 8-4.7 9.8 -4.9 1.9-13.4 1.6-15.3-1.9 -1.8-3.3-1.3-7.8-2.2-11.8C84.2 22.9 83.1 20.5 82.3 18z" class="a"/><path d="M76.8 19.5c0 0 0.2 1.1 0.2 2.3 0 2 0 3.9 0 6.5 -5.1-3-6.9-13.9-15.2-6.6 -3.3 2.9-2.2 12.8 0.6 15.4 3.5 3.2 5.5 2.5 14.1-4.9 -0.3 3.4-2.7 6.9-6.1 7.4 -3.2 0.5-6.7 0.5-9.7-0.5 -6.6-2.2-9.4-8-7.2-13.6 2.5-6 9.7-9.2 15.6-7.3C71.4 19 73.7 19 76.8 19.5z" class="a"/><path d="M278.3 31.6c-2.4 7.6-8.9 10.5-16 8 -6.5-2.3-9.8-8.4-7.6-14 2.6-6.4 10.2-9.4 16.5-6.9 1.7 0.7 3.8 0.1 6.4 0.1 0 2.5 0 5.7 0 9.6 -4.4-4.1-6.3-12.6-14.2-7.6 -3.5 2.2-3.2 12.7-0.3 15.9C266.5 40.5 269.2 39.6 278.3 31.6z" class="a"/><path d="M404 28.8c0 1.8 0 3.6 0 5.5 0.1 3.7-2.2 5-5.4 4.9 -3.1-0.1-4.8-1.6-4.6-5 0.2-3.3 0.2-6.6 0-9.9 -0.2-3.6 1.5-5.3 4.8-5.4 3.3-0.1 5.4 1.4 5.2 5.1C403.9 25.5 404 27.2 404 28.8z"/><path d="M454.5 30c-0.3-2-0.5-2.7-0.5-3.3 0-2.3 0-4.6 0-8.4 3.8 1.1 7.1 1.8 10.1 3.2 0.7 0.4 0.9 4.4 0.2 4.8C461.4 27.8 458.1 28.7 454.5 30z"/><path d="M174.1 29.1c0-5.3 3.4-10.2 7-10 3.4 0.2 6.6 5.2 6.5 10 -0.1 5-3.4 9.8-6.8 9.7C177.3 38.9 174.1 34.2 174.1 29.1z"/><path d="M329.5 29.5c-0.3 5.6-3.8 9.9-7.5 9.5 -3.9-0.4-7.2-5.8-6.7-10.8 0.5-5.2 4-9.4 7.6-9C326.6 19.5 329.8 24.4 329.5 29.5z"/></svg>
