<svg xmlns="http://www.w3.org/2000/svg" width="558" height="47" viewBox="0 0 557.6 46.5"><style>.a{fill:#FFF;}</style><path d="M0.8 46.5c0-15.3 0-30.5 0-45.8 185.6 0 371.2 0 556.8 0 0 15.3 0 30.5 0 45.8C372 46.5 186.4 46.5 0.8 46.5zM385.6 10c3.7 0.8 5 3.1 5 6.6 0 3.9 0.2 7.9 0.1 11.8 0 3.5 0.1 7.1-4.5 8 5 0 10 0 15.4 0 -4.9-2.3-6-5.9-4.2-12.5 4.3 0 8.5 0 13.2 0 -1 4.6 2.6 10.4-5.8 12.6 6.4 0 11.6 0 16.8 0 -4.5-0.7-4.9-4-4.8-7.6 0.1-3.7 0.1-7.4 0-11 -0.1-3.7 0.3-6.9 4.7-7.8 -5.2 0-10.3 0-15.7 0 5 2.3 5.6 4 4.3 12.5 -4.3 0-8.7 0-13.3 0 0.8-4.7-2.1-10.2 5.5-12.6C395.9 10 390.8 10 385.6 10zM488.9 24c3.5-1.1 6.1-0.2 7.8 3.2 0.7 1.5 1.9 2.7 2.8 4.1 4.2 6 5.3 6.4 12.1 5 -1.3-1.2-3.5-2.4-4.7-4.2 -2.1-3.1-4.2-5.8-8.2-6.6 -0.8-0.2-1.4-0.9-2.3-1.5 2.7-0.4 5-0.6 7.2-1.1 4.6-1.1 6.9-3.4 6.7-6.5 -0.2-3.1-3.5-6.2-7.5-6.3 -8.3-0.2-16.5-0.1-24.8-0.1 4 0.8 5 3.5 4.9 7.1 -0.1 3.9-0.1 7.9 0 11.8 0.1 3.8-0.7 6.7-4.9 7.6 5.2 0 10.3 0 15.7 0C488.3 34.4 487.5 32.1 488.9 24zM162 37.5c3.4-1.3 7-2.1 10-3.9 6.9-4.2 8-12.2 2.7-18.3 -4.6-5.4-10.9-6.3-17.4-5.1 -5.4 1.1-9.9 4.2-11.5 9.9 -1.3 4.5 0 8.6 3.4 11.8C152.7 35.3 156.9 36.9 162 37.5zM331.6 36.9c0.1 0.2 0.2 0.3 0.3 0.5 3.3-1.1 6.8-1.8 9.8-3.5 8.3-4.8 8.5-15.2 0.7-20.8 -3.8-2.8-8.1-3.4-12.6-3.2 -6.9 0.3-13.3 5.5-14.2 11.6 -0.9 6.5 3.1 12 10.4 14.3C327.9 36.4 329.8 36.5 331.6 36.9zM473.3 26.2c-3 8.5-9.3 10.4-17.4 9.4 0-3.8 0-7.4 0-11.1 5.4-0.1 6.7 3.7 8.4 7.4 0-5.5 0-10.9 0-16.4 -1.7 3.9-2.9 8.1-8.3 8.1 0-4.5 0-8.6 0-12.7 9.8-0.8 11-0.1 16.5 9.7 0-3.8 0-7 0-10.4 -9.3 0-18.4 0-27.5 0 3.8 0.7 4.9 3.2 4.9 6.6 0 3.7-0.1 7.4 0 11.1 0.1 3.8 0.1 7.5-4.8 8.5 9.4 0 18.7 0 28.4 0 0-3.1 0-6 0-8.9C473.6 27 473.4 26.6 473.3 26.2zM516.7 36.3c2.6-3.5 5.6-2 8.7-1.1 2.4 0.8 4.9 1.3 7.4 1.3 5.6 0.2 9.8-2.8 10.2-7 0.4-3.8-2.2-6.5-8-8.1 -3.9-1.1-7.8-2-11.6-3.3 -1.1-0.4-2.4-1.9-2.4-2.9 0.1-1.2 1.1-2.7 2.2-3.6 0.9-0.7 2.4-1 3.6-0.9 5.1 0.5 9.7 1.9 11.9 7.2 0.3 0.7 0.9 1.2 1.7 2.4 0-3.7 0-6.6 0-8.5 -2.2-0.1-3.9-0.1-5.5-0.3 -3.6-0.5-7.2-1.5-10.8-1.5 -4.1 0-7.6 3.1-8.1 6.3 -0.5 3.5 1.2 5.7 6 7.5 0.9 0.3 1.9 0.7 2.9 1 3.4 1 6.9 1.7 10.1 3 1.4 0.6 3 2.4 3 3.7 0 1.2-1.8 3.4-3 3.5 -2.9 0.3-6.3 0.5-8.6-0.8 -3.7-2.1-6.7-5.4-9.9-8.1C516.7 28.9 516.7 32.6 516.7 36.3zM105.4 12c-2.1-0.1-3.7-0.1-5.4-0.3 -3.6-0.5-7.1-1.6-10.7-1.6C85.1 10 81.5 13.3 81.1 16.7c-0.4 3.2 1.5 5.5 6.2 7 3.9 1.3 7.9 2.4 11.9 3.6 2.2 0.7 5 1.6 4.3 4.3 -0.5 1.7-3 3-4.8 4 -0.9 0.5-2.5 0.1-3.7-0.2 -6-1.2-10.7-4.2-13.1-11.3 0 4.9 0 8.5 0 13.2 2.1-4.2 4.6-3.3 7.3-2.6 3.4 0.9 6.8 1.7 10.3 1.7 4 0.1 7.6-3.3 8.1-6.7 0.4-3.6-1.4-6-5.9-7.7 -0.7-0.3-1.4-0.5-2.2-0.7 -3.7-1-7.6-1.9-11.2-3.2 -1.2-0.4-2.8-2.1-2.7-3.1 0.1-1.3 1.5-2.9 2.7-3.6 4.3-2.3 12 0.4 14.6 4.8 0.7 1.1 1.3 2.2 2.4 4.1C105.4 16.6 105.4 13.9 105.4 12zM137 36.5c0-0.2 0-0.4 0.1-0.6 -1.1 0-2.2 0.1-3.3 0 -2.8-0.2-4.7-1.5-4.7-4.4 -0.1-6.8 0-13.7 0-20.7 8.5 0 10.4 6.3 12.6 12.3 0-4.2 0-8.5 0-12.8 -10.4 0-20.6 0-30.9 0 0 4.4 0 8.6 0 13.4 3.7-10.8 6.2-13.2 12.5-12.5 0 5.6 0 11.3 0 17 0 6.8-0.6 7.4-7.5 7.9 -0.1 0-0.3 0.3-0.5 0.5C122.6 36.5 129.8 36.5 137 36.5zM355.6 36.4c8 0 15.3 0 22.5 0 -1.2-0.5-2.7-0.1-3.6-0.7 -1.7-1-4.2-2.4-4.3-3.8 -0.4-7-0.2-14.1-0.2-21.8 2.3 0.8 4.6 0.8 5.7 2 2.7 3.2 4.9 6.9 6.8 9.7 0-3.3 0-7.5 0-11.7 -10.5 0-20.7 0-30.9 0 0 4.4 0 8.6 0 13.1 4.5-11.2 6.7-13.3 12.6-12.1 0 4.9 0 9.8 0 14.8C364.3 34.8 364.3 34.8 355.6 36.4zM77.5 10.2c-3.9 0-7.8 0-10.8 0 1.3 1.3 4 2.7 4.2 4.5 0.6 5.2 0.6 10.6-0.1 15.8 -0.5 3.7-5.8 6-10.2 5.4 -5-0.7-7.2-3.2-7.3-8.1 0-2.9-0.1-5.8 0-8.8 0.1-2.1-0.1-4.6 0.9-6.2 0.8-1.4 3.2-1.9 4.6-2.6 -5.4 0-11.1 0-16.8 0 4 0.6 5.2 3.2 5 6.8 -0.1 3 0 6.1 0 9.1 0 6.5 1.5 8.9 7.9 10 3.7 0.7 7.8 0.4 11.6-0.4 4.3-0.8 6.3-3.7 6.4-8.2 0.1-2.8 0.1-5.6 0-8.4C72.9 15.3 73.3 11.8 77.5 10.2zM300.8 10.2c-6.8 0-12.5 0-18.2 0 3.8 0.6 5.1 2.8 5 6.5 -0.2 3.9-0.2 7.9 0 11.8 0.1 3.9-0.1 7.3-4.9 7.8 9.7 0 19.5 0 28.9 0 0-3.9 0-7.5 0-11.9 -7.3 11.6-9.3 12.8-17.7 10.8 0-6 0-12.1 0-18.2C294 12.1 294.7 11.2 300.8 10.2zM181.7 9.9c4.3 0.8 4.9 3.8 4.9 7.4 0 3.2 0 6.4 0 9.5 0 4 0.3 8.2-4.8 9.6 3.6 0 7.2 0 10 0 -1.3-1.6-3.8-3.3-4-5.2 -0.6-5.2-0.2-10.5-0.2-15.8 0.2-0.1 0.5-0.1 0.7-0.2 3.5 7.1 7.1 14.3 11 22.2 1.8-3.8 3.1-6.6 4.5-9.4 -0.2-0.1-0.4-0.3-0.6-0.4 -0.4 0.6-0.8 1.3-1.3 2.2 -3-6.2-5.6-11.8-8.5-17.3 -0.6-1.1-2-2.4-3.1-2.5C187.4 9.7 184.5 9.9 181.7 9.9zM37 11.2c-2.4 0.4-4.9 1.6-6.1 0.8 -6.5-4.4-14.5-1.6-18.6 3.6 -4.1 5.1-3.7 11.8 1.1 16.5 5 5 13.7 6.2 18.4 2.3 -1.6 0.4-2.9 0.8-4.2 1.1 -5 1.3-9.7-1-10.4-6 -0.6-4.5-0.4-9.4 0.5-13.9 0.8-4.3 4.7-6.2 8.8-4.2 3 1.5 5.5 4.1 8 6.5 1.1 1.1 1.6 2.9 2.5 4.8C37 18.2 37 14.3 37 11.2zM272.5 34.4c-1.3 0.4-2.6 0.7-3.9 1.1 -5 1.3-9.7-1-10.4-6 -0.6-4.5-0.4-9.4 0.5-13.9 0.8-4.3 4.7-6.1 8.8-4.2 3 1.5 5.5 4.1 7.9 6.5 1.1 1.1 1.6 2.9 2.4 4.4 0.2-0.1 0.4-0.1 0.7-0.2 -0.2-4-0.4-8-0.5-12 -0.3-0.3-0.5-0.5-0.8-0.8 -1.8 4.7-4 3.3-7.1 1.9 -2.8-1.2-6.5-1.5-9.4-0.7 -5.7 1.5-9.4 5.6-10.1 11.6 -0.6 5.2 2 9.1 6.2 11.8C261.9 37.3 267.3 37.6 272.5 34.4zM425.7 36.4c5.2 0 10.4 0 15.6 0 -4.2-0.6-4.8-3.6-4.8-7 0-4.1 0-8.1 0-12.2 0-3.5 0.5-6.6 4.8-7.2 -5.2 0-10.4 0-14.7 0 1 1.3 3.2 2.8 3.4 4.5 0.5 5 0.2 10.1 0.4 15.1C430.4 33.2 429.3 35.6 425.7 36.4zM221.6 9.9c-2.7 0-5.5 0-8.2 0 -0.7 0-1.7 0.3-1.9 0.7 -1.7 3.3-3.3 6.6-4.9 10 0.2 0.1 0.4 0.2 0.6 0.3 1-1.9 2-3.8 3-5.8 0.8 4.4 0.7 8.6 0.8 12.9 0.1 3.8 0.3 7.6-4.8 8.4 5.2 0 10.3 0 15.5 0 -4.3-0.8-5.2-3.7-5-7.5 0.2-3.8 0.2-7.6 0-11.4C216.4 13.8 217.2 10.8 221.6 9.9z" class="a"/><path d="M385.6 10c5.2 0 10.4 0 16.5 0 -7.5 2.4-4.7 7.9-5.5 12.6 4.7 0 9 0 13.3 0 1.3-8.5 0.7-10.3-4.3-12.5 5.4 0 10.6 0 15.7 0 -4.4 0.9-4.8 4.1-4.7 7.8 0.1 3.7 0.1 7.4 0 11 -0.1 3.6 0.3 6.9 4.8 7.6 -5.2 0-10.4 0-16.8 0 8.3-2.2 4.7-8 5.8-12.6 -4.6 0-8.9 0-13.2 0 -1.8 6.6-0.7 10.2 4.2 12.5 -5.4 0-10.4 0-15.4 0 4.7-0.8 4.5-4.5 4.5-8 0-3.9-0.2-7.9-0.1-11.8C390.6 13.1 389.3 10.8 385.6 10z"/><path d="M488.9 24c-1.3 8.2-0.5 10.4 4.6 12.5 -5.4 0-10.5 0-15.7 0 4.3-0.9 5.1-3.8 4.9-7.6 -0.1-3.9-0.1-7.9 0-11.8 0.1-3.6-0.9-6.2-4.9-7.1 8.3 0 16.5-0.2 24.8 0.1 4 0.1 7.3 3.3 7.5 6.3 0.2 3.1-2 5.4-6.6 6.5 -2.2 0.5-4.4 0.7-7.2 1.1 0.9 0.6 1.6 1.3 2.3 1.5 3.9 0.8 6.1 3.5 8.2 6.6 1.2 1.8 3.4 3 4.7 4.2 -6.8 1.4-7.9 1-12.1-5 -0.9-1.3-2.1-2.6-2.8-4.1C495 23.7 492.4 22.9 488.9 24zM488.5 10.4c0 3.1 0 5.6 0 8.2 0 1.4 0 2.7 0 4.7 4.1-0.4 7.7-0.5 11.3-1.1 2.8-0.5 3.8-2.6 3.8-5.3 0-2.7-1-4.9-3.8-5.3C496.2 10.9 492.6 10.7 488.5 10.4z"/><path d="M162 37.5c-5.1-0.6-9.4-2.2-12.8-5.5 -3.4-3.2-4.7-7.3-3.4-11.8 1.7-5.7 6.1-8.8 11.5-9.9 6.5-1.3 12.7-0.3 17.4 5.1 5.3 6.1 4.2 14.1-2.7 18.3C169 35.4 165.4 36.2 162 37.5zM152.5 23.4c0.8 2.8 1.2 5.8 2.5 8.3 3 5.5 10.3 5.6 13.3 0.2 3.1-5.5 3.2-11.5 0-17.1 -3.3-5.6-10.4-5.4-13.4 0.5C153.6 17.6 153.3 20.5 152.5 23.4z"/><path d="M331.6 36.9c-1.8-0.3-3.8-0.5-5.5-1 -7.3-2.3-11.4-7.8-10.4-14.3 0.9-6.1 7.3-11.3 14.2-11.6 4.5-0.2 8.8 0.4 12.6 3.2 7.8 5.6 7.6 15.9-0.7 20.8 -2.9 1.7-6.5 2.4-9.8 3.5C331.8 37.2 331.7 37 331.6 36.9zM341 23.5c-0.6-2.5-0.8-4.8-1.6-6.9 -1.3-3.5-3.8-5.9-7.6-5.9 -3.6 0-6.1 2.4-7.4 5.7 -1.8 4.8-1.8 9.7 0.3 14.4 1.4 3 3.8 4.9 7.1 4.9 3.3 0 5.9-1.7 7.2-4.8C339.9 28.6 340.3 25.9 341 23.5z"/><path d="M473.3 26.2c0.1 0.4 0.2 0.9 0.2 1.3 0 2.9 0 5.8 0 8.9 -9.7 0-19 0-28.4 0 4.8-0.9 4.8-4.7 4.8-8.5 -0.1-3.7 0-7.4 0-11.1 0-3.4-1-5.9-4.9-6.6 9.1 0 18.2 0 27.5 0 0 3.4 0 6.7 0 10.4 -5.5-9.8-6.8-10.5-16.5-9.7 0 4.1 0 8.2 0 12.7 5.4 0 6.7-4.2 8.3-8.1 0 5.5 0 10.9 0 16.4 -1.6-3.7-3-7.5-8.4-7.4 0 3.8 0 7.4 0 11.1C464 36.6 470.3 34.7 473.3 26.2z"/><path d="M516.7 36.3c0-3.7 0-7.4 0-10.2 3.1 2.6 6.1 6 9.9 8.1 2.3 1.3 5.8 1.1 8.6 0.8 1.2-0.1 3-2.3 3-3.5 0-1.3-1.6-3.1-3-3.7 -3.2-1.3-6.7-2-10.1-3 -1-0.3-1.9-0.6-2.9-1 -4.8-1.7-6.6-3.9-6-7.5 0.5-3.2 4-6.3 8.1-6.2 3.6 0 7.2 1 10.8 1.5 1.6 0.2 3.3 0.2 5.5 0.3 0 1.9 0 4.8 0 8.5 -0.9-1.2-1.5-1.7-1.7-2.4 -2.2-5.4-6.9-6.7-11.9-7.2 -1.2-0.1-2.7 0.2-3.6 0.9 -1.1 0.8-2.2 2.3-2.2 3.6 0 1 1.3 2.5 2.4 2.9 3.8 1.3 7.7 2.2 11.6 3.3 5.7 1.6 8.4 4.3 8 8.1 -0.5 4.2-4.6 7.2-10.2 7 -2.5-0.1-5-0.6-7.4-1.3C522.3 34.2 519.4 32.8 516.7 36.3z"/><path d="M105.4 12c0 1.9 0 4.6 0 8.4 -1.1-1.9-1.7-3-2.4-4.1 -2.6-4.4-10.3-7-14.6-4.8 -1.2 0.6-2.6 2.3-2.7 3.6 -0.1 1 1.5 2.7 2.7 3.1 3.7 1.3 7.5 2.2 11.2 3.2 0.7 0.2 1.5 0.4 2.2 0.7 4.5 1.7 6.3 4.1 5.9 7.7 -0.4 3.4-4 6.8-8.1 6.7 -3.4-0.1-6.9-0.9-10.3-1.7 -2.7-0.7-5.2-1.5-7.3 2.6 0-4.7 0-8.4 0-13.2 2.4 7.1 7.1 10.1 13.1 11.3 1.2 0.3 2.8 0.7 3.7 0.2 1.8-1 4.3-2.3 4.8-4 0.8-2.7-2-3.6-4.3-4.3 -4-1.2-8-2.3-11.9-3.6 -4.6-1.5-6.5-3.9-6.2-7 0.4-3.4 3.9-6.7 8.2-6.6 3.6 0 7.1 1.1 10.7 1.6C101.6 11.9 103.3 11.9 105.4 12z"/><path d="M137 36.5c-7.2 0-14.4 0-21.7 0 0.2-0.3 0.4-0.5 0.5-0.5 6.9-0.5 7.5-1.1 7.5-7.9 0-5.7 0-11.4 0-17 -6.4-0.7-8.8 1.8-12.5 12.5 0-4.9 0-9 0-13.4 10.3 0 20.5 0 30.9 0 0 4.4 0 8.6 0 12.8 -2.3-5.9-4.2-12.3-12.6-12.3 0 7.1-0.1 13.9 0 20.7 0 2.9 1.9 4.2 4.7 4.4 1.1 0.1 2.2 0 3.3 0C137 36.1 137 36.3 137 36.5z"/><path d="M355.6 36.4c8.7-1.7 8.7-1.7 8.7-10.4 0-4.9 0-9.9 0-14.8 -5.9-1.2-8.1 0.9-12.6 12.1 0-4.5 0-8.7 0-13.1 10.2 0 20.4 0 30.9 0 0 4.2 0 8.4 0 11.7 -1.9-2.8-4.1-6.5-6.8-9.7 -1-1.2-3.4-1.3-5.7-2 0 7.7-0.2 14.8 0.2 21.8 0.1 1.4 2.6 2.8 4.3 3.8 0.9 0.6 2.4 0.2 3.6 0.7C370.9 36.4 363.6 36.4 355.6 36.4z"/><path d="M77.5 10.2c-4.2 1.6-4.6 5.1-4.4 8.9 0.1 2.8 0.1 5.6 0 8.4 -0.2 4.5-2.1 7.4-6.4 8.2 -3.8 0.7-7.8 1-11.6 0.4 -6.4-1.1-7.9-3.5-7.9-10 0-3-0.1-6.1 0-9.1 0.1-3.6-1-6.2-5-6.8 5.7 0 11.4 0 16.8 0 -1.4 0.7-3.8 1.2-4.6 2.6 -1 1.7-0.8 4.1-0.9 6.2 -0.1 2.9-0.1 5.8 0 8.8 0.1 4.9 2.3 7.3 7.3 8.1 4.4 0.6 9.7-1.6 10.2-5.4 0.7-5.2 0.7-10.6 0.1-15.8 -0.2-1.7-2.9-3.2-4.2-4.5C69.7 10.2 73.6 10.2 77.5 10.2z"/><path d="M300.8 10.2c-6 1-6.8 1.9-6.8 6.9 0 6.1 0 12.2 0 18.2 8.4 2 10.4 0.8 17.7-10.8 0 4.3 0 8 0 11.9 -9.5 0-19.2 0-28.9 0 4.8-0.6 5.1-4 4.9-7.8 -0.2-3.9-0.2-7.9 0-11.8 0.2-3.6-1.2-5.8-5-6.5C288.3 10.2 294 10.2 300.8 10.2z"/><path d="M181.7 9.9c2.9 0 5.8-0.2 8.6 0.1 1.2 0.1 2.5 1.4 3.1 2.5 2.9 5.5 5.5 11.1 8.5 17.3 0.6-1 1-1.6 1.3-2.2 0.2 0.1 0.4 0.3 0.6 0.4 -1.4 2.8-2.7 5.7-4.5 9.4 -3.9-7.9-7.5-15.1-11-22.2 -0.2 0.1-0.5 0.1-0.7 0.2 0 5.3-0.4 10.6 0.2 15.8 0.2 2 2.7 3.6 4 5.2 -2.8 0-6.4 0-10 0 5.1-1.4 4.8-5.6 4.8-9.6 0-3.2 0-6.4 0-9.5C186.6 13.8 185.9 10.7 181.7 9.9z"/><path d="M37 11.2c0 3.1 0 7 0 11.5 -0.9-1.8-1.4-3.7-2.5-4.8 -2.4-2.4-5-5-8-6.5 -4.1-2-8-0.1-8.8 4.2 -0.8 4.5-1.1 9.3-0.5 13.9 0.7 5 5.3 7.3 10.4 6 1.3-0.3 2.6-0.7 4.2-1.1 -4.7 3.9-13.4 2.7-18.4-2.3 -4.7-4.7-5.1-11.4-1.1-16.5 4.1-5.2 12.1-8 18.6-3.6C32 12.8 34.5 11.6 37 11.2z"/><path d="M272.5 34.4c-5.3 3.1-10.6 2.9-15.8-0.4 -4.2-2.7-6.8-6.7-6.2-11.8 0.7-6 4.4-10.1 10.1-11.6 2.9-0.8 6.6-0.5 9.4 0.7 3.1 1.3 5.3 2.7 7.1-1.9 0.3 0.3 0.5 0.5 0.8 0.8 0.2 4 0.4 8 0.5 12 -0.2 0.1-0.4 0.1-0.7 0.2 -0.8-1.5-1.2-3.3-2.4-4.4 -2.4-2.4-4.9-5-7.9-6.5 -4.1-2-8-0.1-8.8 4.2 -0.8 4.5-1.1 9.3-0.5 13.9 0.7 5 5.3 7.3 10.4 6C269.9 35.2 271.2 34.8 272.5 34.4z"/><path d="M425.7 36.4c3.6-0.8 4.7-3.3 4.6-6.7 -0.1-5.1 0.2-10.1-0.4-15.1 -0.2-1.7-2.3-3.2-3.4-4.5 4.3 0 9.5 0 14.7 0 -4.3 0.6-4.8 3.7-4.8 7.2 0 4.1 0 8.1 0 12.2 0 3.4 0.6 6.4 4.8 7C436.1 36.4 430.9 36.4 425.7 36.4z"/><path d="M221.6 9.9c-4.4 0.9-5.1 3.9-5 7.6 0.2 3.8 0.2 7.6 0 11.4 -0.2 3.9 0.7 6.7 5 7.5 -5.1 0-10.3 0-15.5 0 5.1-0.8 4.9-4.6 4.8-8.4 -0.1-4.2 0-8.5-0.8-12.9 -1 1.9-2 3.8-3 5.8 -0.2-0.1-0.4-0.2-0.6-0.3 1.6-3.3 3.2-6.7 4.9-10 0.2-0.5 1.3-0.7 1.9-0.7C216.1 9.9 218.8 9.9 221.6 9.9z"/><path d="M488.5 10.4c4.1 0.4 7.7 0.5 11.2 1.1 2.8 0.5 3.8 2.6 3.8 5.3 0 2.7-1 4.9-3.8 5.3 -3.5 0.6-7.2 0.7-11.3 1.1 0-2 0-3.4 0-4.7C488.5 16 488.5 13.5 488.5 10.4z" class="a"/><path d="M152.5 23.4c0.8-2.9 1.1-5.8 2.4-8.2 3-5.8 10.1-6.1 13.4-0.5 3.3 5.6 3.1 11.5 0 17.1 -3 5.4-10.3 5.3-13.3-0.2C153.7 29.2 153.3 26.2 152.5 23.4z" class="a"/><path d="M341 23.5c-0.6 2.4-1.1 5.1-2 7.5 -1.2 3.1-3.9 4.8-7.2 4.8 -3.3 0-5.7-2-7.1-4.9 -2.2-4.7-2.1-9.6-0.3-14.4 1.2-3.3 3.7-5.7 7.4-5.7 3.8 0 6.4 2.4 7.6 5.9C340.1 18.7 340.4 21 341 23.5z" class="a"/></svg>
