<svg xmlns="http://www.w3.org/2000/svg" width="472" height="202" viewBox="0 0 472 202"><style>.a{fill:#FFF;}</style><path d="M472 202c-157 0-314 0-470.9 0 0-67 0-134 0-200.9 157 0 314 0 470.9 0C472 68 472 135 472 202zM54.6 168c-9.7-2.6-19.1-2.9-28.3 0.4 -4.2 1.5-7.7 3.9-8.4 8.9 -0.7 5.1 1.5 9.1 5.7 11.3 5.7 2.9 11.8 6.3 17.9 6.9 16.9 1.6 19.8-3 21.8-15.7 0-0.3 0.4-0.5 0.7-0.7 6.5 0.4 12.9 1.4 19.3 1.1 15-0.7 29.9-2.5 44.8-3.1 20.3-0.8 40.6-0.6 60.9-1.2 18.8-0.5 37.6-1.2 56.4-2 4.7-0.2 9.4-1.4 14.1-2.2 0-0.5-0.1-1.1-0.1-1.6 -3.7-0.3-7.5-0.9-11.2-0.9 -38.8 0-77.6 0-116.5 0.4 -13 0.1-25.9 1.9-38.8 2.2 -9.9 0.3-19.8-0.6-31-1 0-12.1 0.3-22.9-0.1-33.6 -0.3-11-1.6-21.9-1.8-32.9 -0.3-16.4-0.1-32.9-0.1-49.3 0-3.6-0.8-6.7-4.7-7.9 -5.8-1.7-8.2 1.9-7.1 9.2 1.8 11.5 3.9 22.9 4.6 34.5 1.1 18.8 1.3 37.6 1.7 56.4C54.7 154 54.6 160.8 54.6 168zM189 134.4c-2.3-0.5-3.6-1-5.1-1.1 -1.9-0.2-5-0.7-5.5 0.1 -1.6 2.9-3 6.3-3.1 9.5 -0.1 3 3 3.2 5.7 3.2 8.5-0.1 17 0.6 25.4-0.2 8.2-0.8 16.6-1.9 24.3-4.6 19.5-6.9 28.5-22.9 25.7-43.1 -1.8-12.4-19.7-29.1-32.8-30.1 -4.7-0.4-9.6 0.2-14.4 0.6 -4.8 0.4-9.1 0.8-12.4-3.9 -2.5-3.6-5-1.6-7.2 0.9 -5 5.5-11.6 6.1-17.6 1.7 -1.9-1.4-3.2-3.5-5.2-4.6 -2-1.1-4.4-1.3-6.6-1.8 -0.1 2.1-0.9 4.5-0.3 6.3 2.2 6.4 14.8 12.4 22.4 10.4 3.5-0.9 4.9 0.4 5.4 3.1 2 9.4 4.4 18.8-0.3 28.2 -0.4 0.8-0.5 2.1-0.1 2.7C192.3 118.6 189.5 126.1 189 134.4zM329.2 123.3c-1.2-1.5-2.3-2.9-3.4-4.4 -4.2-5.5-7.7-11.1-6.9-18.6 0.7-6.3 5.4-11 13.6-12.3 4.4-0.7 6.9 1.4 9.3 8.3 0.9 2.7 1.5 5.4 2.2 8.2 2.8 10.5 2.1 21.1 1.6 31.7 -0.1 2 0.9 4 1.4 5.9 2.2-0.9 4.8-1.5 6.5-3 1.4-1.2 2.5-3.5 2.7-5.5 1-12.6 4.5-24.1 13.8-33.3 1-1 1.6-2.5 2.3-3.8 4.3-7.9 7.4-16.8 13.1-23.4 10.3-11.7 21.9-22.3 33.5-32.8 9.7-8.8 21.7-14.1 33.9-18.4 3.3-1.2 6.3-3.1 9.4-4.7 -0.1-0.7-0.3-1.4-0.4-2.2 -2.1 0-4.4-0.5-6.3 0.1 -6 1.7-12.2 3.2-17.9 5.8 -14.1 6.5-25.4 16.8-36.6 27.3 -15.2 14.3-27 31.1-37.9 48.7 -2.7 4.3-6 8.2-9.4 12.7 -2.7-7.4-5-13.8-7.3-20.1 -2.5-6.9-6.7-10.5-14.9-10 -8.5 0.5-14.2 4-19.2 10.5 -4.9 6.3-2.3 12 0.5 17.6 2.5 5 5.4 9.9 8.7 14.4C322.9 124.4 325.7 126.5 329.2 123.3zM304.7 145.6c-3.3-9.8-6.2-19.4-9.7-28.8 -2.2-5.9-7.2-7.2-13.1-3.5 -9.3 5.8-15.3 14.2-17.5 25 -0.3 1.6 0.5 4.2 1.7 5.2 5.9 5 17.2 2.7 20.9-4 1.3-2.3 2.3-4.8 3.7-7.7C292.1 141.9 296.3 148.4 304.7 145.6zM110.5 122.1c-0.8-1.7-1.2-3-1.9-4.1 -4.6-7.9-17.7-9.5-23.8-2.9 -9.5 10.2-4.4 27.9 9.1 31.3 1.5 0.4 4.2 0.3 4.9-0.7 0.9-1.3 1.1-3.9 0.5-5.4 -0.5-1.2-2.8-2.1-4.4-2.2 -6.3-0.4-7.9-2.1-7.6-9.1 7.6 0 15.2 0.2 22.9-0.1 3.4-0.1 7-0.8 10.1-2.1 1.3-0.5 1.6-3.3 2.4-5 -1.8-0.7-3.5-2.1-5.3-2C115.2 119.9 113.1 121.2 110.5 122.1zM406.5 139.9c0.5 0.2 1.1 0.4 1.6 0.6 1.1-1.7 2.2-3.3 3.2-5 1.2-2.2 1.9-4.7 3.2-6.7 2.5-3.6 4.7-3.5 6.5 0.4 1.9 4.2 3.1 8.8 5.1 13 1.2 2.6 3 5.2 5.2 7 2.2 1.8 4.7 0.8 4.9-2.4 0.5-11.2-1.8-21.9-8.4-31.2 -1.4-2-5.9-4.2-7.4-3.4 -4.4 2.3-9.7 5.3-11.5 9.4C406.4 127 407.1 133.7 406.5 139.9zM390.5 120.1c-0.1-2.1 0.1-4.4-0.5-6.4 -0.4-1.5-1.9-2.7-2.9-4.1 -1.1 1.2-3.2 2.3-3.3 3.5 -0.4 7.5-0.9 15.1-0.3 22.6 0.4 4.7 3.9 8.3 8.8 9.8 3.3 1 5.4-0.3 6.9-3.1 1.5-2.9 0.9-5.3-1.9-6.7C390.6 132.4 390.1 126.5 390.5 120.1zM386.4 103.4c5.4 0 8.1-2.7 7.3-5.8 -0.8-3.5-3.4-6.9-6.1-9.4 -1.4-1.2-5.3 4.4-5.1 8.4C382.6 100.1 383 103.6 386.4 103.4z" class="a"/><path d="M54.6 168c0-7.2 0.1-14 0-20.8 -0.4-18.8-0.6-37.6-1.7-56.4 -0.7-11.5-2.8-23-4.6-34.5 -1.2-7.3 1.3-10.9 7.1-9.2 3.9 1.1 4.7 4.3 4.7 7.9 0 16.4-0.2 32.9 0.1 49.3 0.2 11 1.4 21.9 1.8 32.9 0.3 10.8 0.1 21.6 0.1 33.6 11.2 0.4 21.1 1.2 31 1 13-0.3 25.9-2.1 38.8-2.2 38.8-0.4 77.6-0.4 116.5-0.4 3.7 0 7.5 0.6 11.2 0.9 0 0.5 0.1 1.1 0.1 1.6 -4.7 0.8-9.4 2-14.1 2.2 -18.8 0.9-37.6 1.6-56.4 2 -20.3 0.5-40.6 0.4-60.9 1.2 -15 0.6-29.9 2.4-44.8 3.1 -6.4 0.3-12.9-0.7-19.3-1.1 -0.2 0.2-0.6 0.5-0.7 0.7 -2 12.6-4.9 17.3-21.8 15.7 -6.2-0.6-12.2-4-17.9-6.9 -4.2-2.1-6.4-6.2-5.7-11.3 0.7-5 4.2-7.4 8.4-8.9C35.5 165.1 44.8 165.3 54.6 168zM34.8 173.3c0 0.2-0.1 0.4-0.1 0.5 -2.3 0.2-4.8-0.2-6.9 0.6 -2.1 0.8-5.3 2.5-5.4 3.9 -0.1 2.1 1.7 5.1 3.6 6.3 4.4 2.6 9.1 4.9 14 6.1 9.8 2.5 13-0.1 14.9-9.7 0.6-2.9-0.5-4-3-4.5C46.1 175.4 40.4 174.3 34.8 173.3z"/><path d="M189 134.4c0.5-8.3 3.4-15.8-1.6-22.9 -0.4-0.6-0.3-1.9 0.1-2.7 4.7-9.4 2.3-18.8 0.3-28.2 -0.5-2.6-1.9-4-5.4-3.1 -7.6 2-20.2-4-22.4-10.4 -0.6-1.9 0.2-4.2 0.3-6.3 2.2 0.6 4.7 0.8 6.6 1.8 2 1.1 3.3 3.3 5.2 4.6 6 4.4 12.6 3.8 17.6-1.7 2.3-2.5 4.8-4.5 7.2-0.9 3.3 4.7 7.6 4.4 12.4 3.9 4.8-0.4 9.6-1 14.4-0.6 13.1 1 31 17.6 32.8 30.1 2.9 20.2-6.2 36.2-25.7 43.1 -7.7 2.7-16.1 3.9-24.3 4.6 -8.4 0.8-17 0.1-25.4 0.2 -2.7 0-5.8-0.2-5.7-3.2 0.1-3.2 1.5-6.6 3.1-9.5 0.4-0.8 3.6-0.2 5.5-0.1C185.3 133.4 186.7 133.9 189 134.4zM227.4 86.5c0.5 0.4 1 0.9 1.6 1.3 -0.7 1.2-1.2 2.5-2.1 3.5 -6.8 8-13.8 15.8-20.3 24 -3.2 4.1-5.9 8.9-7.9 13.7 -1.8 4.3 0.8 7.5 5.5 7.7 4 0.2 8 0.3 12 0 18.7-1.6 32.4-11.3 29.7-32.8 -1.3-10.5-5-19.7-14.6-25.3 -1.3-0.7-3.9-1-4.7-0.3 -8.5 7.9-17 15.9-25.1 24.2 -2.8 2.8-4.1 6.7-2.5 11.7C208.6 104.7 218 95.6 227.4 86.5zM217.6 75.7c-4.8 0.4-8.8 0.5-12.6 1.2 -2.3 0.5-6.3 1.9-6.4 3.1 -0.3 4.4-2.1 9.4 1.6 13.9C206.8 88.7 214 84.7 217.6 75.7z"/><path d="M329.2 123.3c-3.5 3.2-6.3 1.1-7.9-1.1 -3.3-4.5-6.2-9.4-8.7-14.4 -2.8-5.6-5.4-11.2-0.5-17.6 5-6.5 10.8-10 19.2-10.5 8.2-0.5 12.4 3.1 14.9 10 2.3 6.4 4.6 12.7 7.3 20.1 3.4-4.6 6.7-8.5 9.4-12.7 10.9-17.6 22.7-34.4 37.9-48.7 11.2-10.5 22.6-20.8 36.6-27.3 5.7-2.6 11.9-4.1 17.9-5.8 2-0.5 4.2-0.1 6.3-0.1 0.1 0.7 0.3 1.4 0.4 2.2 -3.1 1.6-6.1 3.5-9.4 4.7 -12.3 4.4-24.2 9.6-33.9 18.4 -11.6 10.5-23.2 21.1-33.5 32.8 -5.8 6.6-8.8 15.5-13.1 23.4 -0.7 1.3-1.3 2.8-2.3 3.8 -9.4 9.2-12.8 20.7-13.8 33.3 -0.2 1.9-1.2 4.2-2.7 5.5 -1.7 1.5-4.3 2-6.5 3 -0.5-2-1.5-4-1.4-5.9 0.5-10.6 1.2-21.2-1.6-31.7 -0.7-2.7-1.3-5.5-2.2-8.2 -2.3-6.9-4.8-9-9.3-8.3 -8.2 1.3-12.9 6-13.6 12.3 -0.8 7.5 2.6 13.1 6.9 18.6C326.9 120.4 328 121.8 329.2 123.3z"/><path d="M304.7 145.6c-8.4 2.7-12.6-3.8-14-13.9 -1.4 2.9-2.4 5.4-3.7 7.7 -3.8 6.8-15 9.1-20.9 4 -1.2-1-2-3.6-1.7-5.2 2.2-10.8 8.2-19.2 17.5-25 5.9-3.7 10.9-2.4 13.1 3.5C298.5 126.2 301.4 135.9 304.7 145.6zM285.9 122.7c-0.6-0.5-1.1-1-1.7-1.5 -3.6 4-7.4 7.7-10.6 11.9 -1.6 2.2-2.9 5.4 0.7 7.3 3.6 1.9 5.8-0.7 7-3.6C283.1 132.2 284.4 127.4 285.9 122.7z"/><path d="M110.5 122.1c2.5-0.9 4.7-2.2 6.9-2.3 1.7-0.1 3.5 1.3 5.3 2 -0.8 1.7-1.1 4.5-2.4 5 -3.1 1.3-6.7 2-10.1 2.1 -7.6 0.3-15.3 0.1-22.9 0.1 -0.3 7 1.3 8.7 7.6 9.1 1.6 0.1 3.9 1 4.4 2.2 0.7 1.5 0.5 4.1-0.5 5.4 -0.7 0.9-3.3 1.1-4.9 0.7 -13.5-3.4-18.6-21.1-9.1-31.3 6.1-6.6 19.2-5 23.8 2.9C109.3 119.1 109.7 120.4 110.5 122.1zM87.7 123.5c4.9 0 9.5 0 14.4 0 -1.1-4.6-3.6-7.1-7.8-6.6C90.6 117.2 88.1 119.4 87.7 123.5z"/><path d="M406.5 139.9c0.6-6.2-0.1-12.9 2.3-18.3 1.8-4.1 7.1-7.1 11.5-9.4 1.6-0.8 6 1.4 7.4 3.4 6.6 9.2 8.9 19.9 8.4 31.2 -0.1 3.2-2.6 4.2-4.8 2.4 -2.2-1.8-3.9-4.4-5.2-7 -2-4.2-3.1-8.8-5.1-13 -1.8-4-4-4.1-6.5-0.4 -1.4 2-2.1 4.5-3.2 6.7 -0.9 1.7-2.1 3.4-3.2 5C407.6 140.2 407 140 406.5 139.9z"/><path d="M390.5 120.1c-0.4 6.3 0.1 12.3 6.8 15.7 2.8 1.4 3.4 3.8 1.9 6.7 -1.5 2.9-3.6 4.2-6.9 3.1 -4.9-1.6-8.4-5.1-8.8-9.8 -0.7-7.5-0.1-15.1 0.3-22.6 0.1-1.2 2.1-2.3 3.3-3.5 1 1.3 2.5 2.6 2.9 4.1C390.6 115.7 390.4 118 390.5 120.1z"/><path d="M386.4 103.4c-3.4 0.2-3.7-3.3-3.9-6.7 -0.2-4 3.7-9.7 5.1-8.4 2.7 2.5 5.3 5.9 6.1 9.4C394.4 100.7 391.8 103.4 386.4 103.4z"/><path d="M34.8 173.3c5.7 1.1 11.3 2.2 17 3.2 2.5 0.5 3.5 1.6 3 4.5 -1.8 9.7-5.1 12.2-14.9 9.7 -4.9-1.3-9.6-3.5-14-6.1 -1.9-1.1-3.7-4.2-3.6-6.3 0.1-1.4 3.3-3.2 5.4-3.9 2.1-0.7 4.6-0.4 6.9-0.6C34.7 173.6 34.7 173.4 34.8 173.3z" class="a"/><path d="M227.4 86.5c-9.4 9.1-18.7 18.3-28.5 27.8 -1.6-5-0.3-8.8 2.5-11.7 8.2-8.3 16.6-16.3 25.1-24.2 0.8-0.8 3.4-0.4 4.7 0.3 9.7 5.6 13.3 14.8 14.6 25.3 2.7 21.5-11 31.2-29.7 32.8 -4 0.3-8 0.2-12 0 -4.7-0.2-7.3-3.4-5.5-7.7 2-4.8 4.7-9.6 7.9-13.7 6.5-8.2 13.5-16 20.3-24 0.9-1 1.4-2.3 2.1-3.5C228.4 87.3 227.9 86.9 227.4 86.5z" class="a"/><path d="M217.6 75.7c-3.6 9-10.8 13-17.4 18.3 -3.6-4.5-1.9-9.5-1.6-13.9 0.1-1.2 4-2.7 6.4-3.1C208.8 76.2 212.7 76.1 217.6 75.7z" class="a"/><path d="M285.9 122.7c-1.5 4.7-2.8 9.5-4.7 14.1 -1.2 2.9-3.3 5.5-7 3.6 -3.6-1.8-2.3-5.1-0.7-7.3 3.2-4.2 7-8 10.6-11.9C284.8 121.7 285.4 122.2 285.9 122.7z" class="a"/><path d="M87.7 123.5c0.4-4 2.9-6.3 6.6-6.6 4.2-0.4 6.7 2 7.8 6.6C97.2 123.5 92.5 123.5 87.7 123.5z" class="a"/></svg>
