<svg xmlns="http://www.w3.org/2000/svg" width="488" height="225" viewBox="0 0 488.2 224.6"><style>.a{fill:#FFF;}</style><path d="M0.6 224.6c0-74.7 0-149.3 0-224 162.5 0 325 0 487.6 0 0 74.7 0 149.3 0 224C325.7 224.6 163.1 224.6 0.6 224.6zM4.4 220.1c157.6 0 315 0 472.4 0 0-71.4 0-142.5 0-213.9 -157.5 0-314.9 0-472.4 0C4.4 77.6 4.4 148.7 4.4 220.1z" class="a"/><path d="M4.4 220.1c0-71.4 0-142.6 0-213.9 157.5 0 314.9 0 472.4 0 0 71.3 0 142.5 0 213.9C319.4 220.1 162 220.1 4.4 220.1zM58.8 174.6c-0.3 0-0.7 0-1.1-0.1 -9.6-2.5-19.1-1.9-28.2 2.2 -7.3 3.2-8.8 12.1-2.6 17 8.1 6.4 17.4 9.8 27.8 8.8 9.5-0.9 12.9-4.2 14.5-13.6 0.4-2.5 1.9-2.3 3.5-1.9 10.7 2.1 21.5 1.3 32.1 0.3 18.9-1.7 37.8-2.7 56.8-2.8 26.7-0.3 53.3-1 80-1.9 6-0.2 12-2 18-3.1 0-0.4 0-0.8 0-1.2 -0.9-0.3-1.7-0.8-2.6-0.9 -5.3-0.5-10.7-1.3-16-1.3 -34.2 0-68.4 0.1-102.5 0.5 -14.8 0.2-29.5 1.5-44.3 2.3 -8.3 0.5-16.6-0.4-25-2.2 0-1.2 0-2.2 0-3.3 -0.7-17.4-1.5-34.8-2.2-52.3 -0.7-16.8-2.7-33.5-0.6-50.4 0.4-3.2-0.4-6.5-3.6-8.1 -2.8-1.4-6.1-2-8.7 0.1 -2.8 2.3-1.8 5.6-1.4 8.8 1.5 9.9 3.3 19.8 3.9 29.8 1.1 17.3 1.4 34.6 1.9 52C59 160.2 58.8 167.2 58.8 174.6zM195 157c0 0.2 0 0.4 0.1 0.6 7.4-0.7 14.8-1.6 22.3-2.1 11.5-0.8 21.2-5.3 29.4-13.3 5.8-5.6 10.7-11.6 8.9-20.5 -0.2-1-0.1-2 0-3 0.8-5.3-1-9.9-3.8-14.2 -0.6-0.9-1.2-1.9-1.8-2.8 -7.3-10.5-16.6-17.6-30-17.9 -3.4-0.1-6.9 0.3-10.3 0.6 -4.7 0.4-9.2 1-12.4-3.9 -1.3-2-3.5-2.3-5.3 0.1 -0.6 0.8-1.4 1.4-2.1 2.2 -1.8 2.1-3.9 2.9-6.8 3.1 -6.3 0.4-10.5-2.8-14.4-6.9 -2-2-5.3-3-6.7-1.5 -1.7 1.8-1.1 4.1 0 5.9 1.2 2 2.8 4.1 4.7 5.3 5.2 3.3 11.1 5.2 17.3 4.2 2.8-0.5 4 0.2 4.8 2.5 2.6 7.5 2.2 15.1 1.7 22.8 -0.1 1.1-0.8 2.3-1.5 3.2 -1.1 1.6-1 2.8 0.2 4.3 0.8 1.1 1.6 2.7 1.6 4 0.1 4.1 0 8.3-0.2 12.4 -0.2 4-1.9 4.7-5.4 2.8 -1.1-0.6-2.5-1.3-3.6-1.1 -3.3 0.5-6.2 8-4.5 10.9 0.9 1.5 2 2.3 3.9 2.2C185.7 156.9 190.4 157 195 157zM349.7 122.7c-0.3-0.1-0.7-0.2-1-0.3 -0.6-1.5-1.1-3-1.7-4.5 -2.1-5.4-4-10.8-6.3-16 -1.3-3-3.3-6.4-6.9-6.7 -10.7-0.7-18.7-0.3-25.8 11.6 -1.1 1.8-2.3 4.5-1.7 6.1 2.7 6.6 5.8 13.1 9.2 19.3 1.1 2 3.4 3.4 5.5 4.6 0.8 0.5 2.4-0.1 3.6-0.2 -0.3-1-0.4-2.2-0.9-3.1 -1.8-2.7-3.9-5.1-5.6-7.9 -5.6-8.9-2.7-18.1 6.8-21.7 6.3-2.4 10.3-1.2 12.1 4.7 2 6.5 3.4 13.3 4.5 20 0.6 3.7 0.2 7.6 0.1 11.4 -0.1 3.5-0.4 7.1-0.3 10.6 0.1 2.6 1.3 3.3 3.9 2.5 4.3-1.3 6.9-4.8 7.1-9.4 0.3-9.1 2.7-17.7 8.8-24.6 5.3-6 8.7-13 12.5-19.8 2.1-3.9 4.1-8 7-11.2 6.5-7.1 13.2-14 20.3-20.4 12.1-11 25.2-20.5 41.1-25.3 3.7-1.1 7.2-3.2 10.7-4.9 0.6-0.3 0.8-1.2 1.2-1.8 -0.7-0.4-1.4-1-2.2-1.3 -0.5-0.2-1.2 0-1.8 0.1 -12.5 1-23.3 6.6-33.3 13.6 -15.9 10.9-29.5 24.4-41.7 39.2 -6.1 7.4-10.9 15.8-16.4 23.6C355.8 115 352.7 118.8 349.7 122.7zM303.1 156.6c-0.3-0.8-0.4-1.3-0.6-1.9 -1.6-3.4-3.4-6.6-4.7-10.1 -1.7-4.5-2.7-9.3-4.3-13.8 -2.1-6-6.5-7.5-12.2-4.7 -5.9 2.9-9.9 7.8-13.4 13.1 -2.5 3.7-4.6 7.7-4.3 12.4 0.1 1 0.4 2.3 1.1 3 4.4 4 15.5 3.3 19.2-1.5 2.1-2.8 3.4-6.2 5-9.1C293.6 157.3 295 158.6 303.1 156.6zM91.6 140.9c0.9 0 1.9 0 2.9 0 6.8 0 13.6 0.2 20.4-0.1 3-0.1 6-1 8.8-1.9 2.3-0.7 2.5-2.8 1.7-4.8 -0.8-1.9-2.4-2.7-4.5-2 -1.4 0.5-2.8 1.1-4.3 1.5 -1.9 0.7-3.1 0.4-4.2-1.8 -3.8-7.6-15.3-10.2-22-5.2 -3.6 2.7-5 6.6-5.8 10.9 -1.8 9.7 5.6 18.4 13.7 19.8 1.5 0.3 3.8-0.3 4.5-1.3 0.8-1.1 0.7-3.5-0.1-4.8 -0.7-1.1-2.8-2-4.2-1.9C92.9 149.7 90.5 147 91.6 140.9zM401.6 151.7c3.3-0.9 3.7-3.7 4.9-5.8 1.3-2.2 2.5-4.6 4.1-6.6 1.3-1.6 3-1.6 4 0.6 1.2 2.8 2.3 5.6 3.7 8.3 1.7 3.6 3.4 7.3 5.6 10.6 0.7 1 3.2 1.6 4.5 1.1 1-0.3 2-2.6 1.8-3.9 -0.5-5.1-1.1-10.3-2.5-15.2 -1.2-4.3-3.2-8.6-5.7-12.2 -3.3-4.6-7.7-6.4-11.9 0.4 -0.6 1-1.8 2.2-2.8 2.3 -3 0.2-4.1 1.9-4.5 4.4 -0.6 4.5-1 9-1.5 13.6C401.2 150 401.5 150.7 401.6 151.7zM384.8 132.3c0.1 0 0.2 0 0.2 0 -0.1-2.1 0.1-4.3-0.5-6.3 -0.3-1.2-1.7-2.4-2.9-2.9 -0.6-0.2-2.5 1.1-2.7 2 -1.8 5.7-2.6 11.7-1.8 17.6 0.6 4.1 1.5 8.3 5 11.1 1.7 1.3 3.7 2.4 5.7 3.1 2.6 0.8 4.9-0.9 6.3-4 1.2-2.7-0.3-4.4-2.4-5.4 -5.8-2.7-6.9-7.7-6.9-13.3C384.8 133.5 384.8 132.9 384.8 132.3zM389 111.3c-1.7-2.7-3.4-5.6-5.3-8.1 -0.3-0.4-2.5-0.2-3.2 0.4 -2.7 2.6-4.1 5.7-3.1 9.5 0.8 2.9 2.8 4.3 5.8 4C386.1 116.8 388.3 114.5 389 111.3z"/><path d="M58.8 174.6c0-7.3 0.2-14.4 0-21.5 -0.5-17.3-0.8-34.7-1.9-52 -0.6-10-2.4-19.9-3.9-29.8 -0.5-3.2-1.4-6.5 1.4-8.8 2.6-2.1 5.9-1.5 8.7-0.1 3.2 1.6 4 4.9 3.6 8.1 -2.2 16.8-0.1 33.6 0.6 50.4 0.7 17.4 1.5 34.8 2.2 52.3 0 1.1 0 2.2 0 3.3 8.4 1.8 16.6 2.7 25 2.2 14.8-0.8 29.5-2.1 44.3-2.3 34.2-0.5 68.3-0.5 102.5-0.5 5.3 0 10.7 0.8 16 1.3 0.9 0.1 1.7 0.6 2.6 0.9 0 0.4 0 0.8 0 1.2 -6 1.1-12 2.9-18 3.1 -26.7 0.9-53.3 1.7-80 1.9 -19 0.2-37.9 1.1-56.8 2.8 -10.7 1-21.4 1.8-32.1-0.3 -1.6-0.3-3.1-0.5-3.5 1.9 -1.6 9.4-5.1 12.7-14.5 13.6 -10.5 1-19.8-2.4-27.8-8.8 -6.2-5-4.7-13.8 2.6-17 9.1-4 18.5-4.6 28.2-2.2C58.1 174.5 58.5 174.5 58.8 174.6zM59.4 185.1c-8.7-3-17.5-3.7-26.4-2.3 -1.2 0.2-2.9 1.5-3 2.4 -0.2 1.3 0.5 3.4 1.6 4.2 5.8 4.5 12.4 7.2 19.9 7 6.1-0.2 6.5-0.7 7.3-6.8C58.9 188.3 59.1 187 59.4 185.1z" class="a"/><path d="M195 157c-4.7 0-9.3-0.1-14 0 -1.9 0.1-3-0.8-3.9-2.2 -1.7-2.9 1.2-10.4 4.5-10.9 1.1-0.2 2.5 0.5 3.6 1.1 3.5 1.9 5.1 1.2 5.4-2.8 0.3-4.1 0.4-8.3 0.2-12.4 0-1.4-0.8-2.9-1.6-4 -1.2-1.5-1.2-2.8-0.2-4.3 0.7-1 1.4-2.1 1.5-3.2 0.5-7.7 0.9-15.4-1.7-22.8 -0.8-2.3-2-3-4.8-2.5 -6.2 1-12.1-0.9-17.3-4.2 -1.9-1.2-3.4-3.3-4.7-5.3 -1.1-1.8-1.7-4.1 0-5.9 1.4-1.5 4.7-0.6 6.7 1.5 3.9 4.1 8.1 7.3 14.4 6.9 2.9-0.2 5-1 6.8-3.1 0.7-0.8 1.5-1.4 2.1-2.2 1.8-2.4 4-2.1 5.3-0.1 3.2 4.9 7.7 4.3 12.4 3.9 3.4-0.3 6.9-0.7 10.3-0.6 13.4 0.3 22.7 7.4 30 17.9 0.6 0.9 1.2 1.9 1.8 2.8 2.9 4.3 4.6 8.9 3.8 14.2 -0.1 1-0.2 2.1 0 3 1.8 8.9-3.1 14.9-8.9 20.5 -8.2 8-17.9 12.5-29.4 13.3 -7.4 0.5-14.8 1.4-22.3 2.1C195.1 157.5 195.1 157.2 195 157zM227.4 101.2c1.8 2.2 0.9 3.1-0.2 4.4 -8 9.2-16 18.3-23.7 27.7 -1.9 2.3-3.2 5.4-4.1 8.3 -1.2 4.1 0.9 6.4 5.2 6.5 3.2 0 6.5-0.2 9.7 0 6.3 0.4 12-1.1 17.6-3.9 6.2-3.1 11.1-7.3 12.6-14.5 1.5-7.4 0.8-14.7-1.7-21.8 -1.5-4.5-4.1-8.5-8.1-11.4 -6.3-4.6-6.4-4.7-12.2 0.2 -7.5 6.3-15.2 12.4-21 20.4 -2.1 2.9-2.9 6-1.8 10.1C209 118.4 218.1 109.9 227.4 101.2zM217.6 92.4c-0.2-0.4-0.5-0.9-0.7-1.3 -5.4 0.8-10.8 1.5-16.2 2.4 -0.6 0.1-1.4 1.3-1.5 2 -0.1 3.3-0.2 6.7 0 10 0.2 2.3 1.7 3 3.5 1.6 3.7-2.8 7.3-5.7 10.7-8.8C215.2 96.6 216.2 94.4 217.6 92.4z" class="a"/><path d="M349.7 122.7c3-3.9 6-7.7 8.9-11.8 5.5-7.9 10.3-16.3 16.4-23.6 12.2-14.8 25.9-28.3 41.7-39.2 10-6.9 20.8-12.5 33.3-13.6 0.6 0 1.3-0.3 1.8-0.1 0.8 0.3 1.5 0.8 2.2 1.3 -0.4 0.6-0.7 1.5-1.2 1.8 -3.5 1.7-7 3.8-10.7 4.9 -15.9 4.9-29 14.4-41.1 25.3 -7.1 6.4-13.9 13.3-20.3 20.4 -2.9 3.2-4.9 7.4-7 11.2 -3.8 6.9-7.2 13.8-12.5 19.8 -6.1 6.9-8.4 15.5-8.8 24.6 -0.2 4.6-2.8 8.1-7.1 9.4 -2.5 0.8-3.8 0.1-3.9-2.5 -0.1-3.5 0.2-7.1 0.3-10.6 0.1-3.8 0.5-7.7-0.1-11.4 -1.1-6.7-2.5-13.5-4.5-20 -1.8-5.9-5.8-7.1-12.1-4.7 -9.4 3.6-12.3 12.8-6.8 21.7 1.7 2.7 3.9 5.2 5.6 7.9 0.6 0.9 0.6 2.1 0.9 3.1 -1.2 0.1-2.7 0.7-3.6 0.2 -2-1.2-4.4-2.6-5.4-4.6 -3.4-6.3-6.6-12.7-9.2-19.3 -0.6-1.6 0.6-4.3 1.7-6.1 7.1-11.8 15.1-12.3 25.8-11.6 3.6 0.3 5.6 3.6 6.9 6.7 2.3 5.2 4.2 10.7 6.3 16 0.6 1.5 1.1 3 1.7 4.5C349.1 122.5 349.4 122.6 349.7 122.7z" class="a"/><path d="M303.1 156.6c-8.1 2.1-9.5 0.8-14.4-12.6 -1.6 2.9-2.9 6.3-5 9.1 -3.6 4.8-14.8 5.5-19.2 1.5 -0.7-0.6-1-1.9-1.1-3 -0.3-4.7 1.8-8.6 4.3-12.4 3.5-5.3 7.5-10.2 13.4-13.1 5.7-2.8 10.1-1.3 12.2 4.7 1.6 4.6 2.7 9.3 4.3 13.8 1.3 3.5 3.1 6.8 4.7 10.1C302.7 155.2 302.8 155.8 303.1 156.6zM284.5 135.1c-0.3-0.2-0.7-0.5-1-0.7 -1.7 1.1-3.7 2-5.2 3.4 -3.2 2.9-6.6 5.9-6.9 10.6 -0.1 1.1 0.7 2.8 1.7 3.4 1 0.6 2.7 0.3 3.9-0.1 0.9-0.3 1.9-1.3 2.3-2.3C281.1 144.7 282.8 139.9 284.5 135.1z" class="a"/><path d="M91.6 140.9c-1.1 6.1 1.2 8.7 6.9 8.5 1.4 0 3.5 0.8 4.2 1.9 0.8 1.2 0.9 3.7 0.1 4.8 -0.7 1-3.1 1.6-4.5 1.3 -8-1.4-15.5-10.1-13.7-19.8 0.8-4.3 2.2-8.2 5.8-10.9 6.7-5 18.2-2.5 22 5.2 1.1 2.2 2.3 2.4 4.2 1.8 1.4-0.5 2.8-1.1 4.3-1.5 2.1-0.7 3.7 0.1 4.5 2 0.8 2 0.7 4-1.7 4.8 -2.9 0.9-5.9 1.7-8.8 1.9 -6.8 0.3-13.6 0.1-20.4 0.1C93.5 140.9 92.5 140.9 91.6 140.9zM105.3 136.1c-0.5-3.9-3.1-6.4-6.5-6.5 -3.5-0.1-6.7 2.8-7.2 6.5C96.1 136.1 100.6 136.1 105.3 136.1z" class="a"/><path d="M401.6 151.7c-0.1-1-0.4-1.7-0.3-2.4 0.4-4.5 0.9-9.1 1.5-13.6 0.3-2.5 1.5-4.2 4.5-4.4 1-0.1 2.2-1.3 2.8-2.3 4.2-6.8 8.7-4.9 11.9-0.4 2.6 3.6 4.5 7.9 5.7 12.2 1.4 4.9 1.9 10.1 2.5 15.2 0.1 1.3-0.9 3.6-1.8 3.9 -1.3 0.4-3.9-0.1-4.5-1.1 -2.2-3.3-3.8-7-5.6-10.6 -1.3-2.7-2.4-5.5-3.7-8.3 -1-2.3-2.7-2.2-4-0.6 -1.6 2-2.8 4.3-4.1 6.6C405.3 148.1 404.9 150.8 401.6 151.7z" class="a"/><path d="M384.8 132.3c0 0.6 0 1.2 0 1.8 0 5.6 1.1 10.6 6.9 13.3 2.1 1 3.6 2.7 2.4 5.4 -1.4 3.1-3.7 4.8-6.3 4 -2-0.7-4.1-1.8-5.7-3.1 -3.5-2.8-4.4-7-5-11.1 -0.9-6-0.1-11.9 1.8-17.6 0.3-0.9 2.1-2.2 2.8-2 1.2 0.4 2.6 1.7 2.9 2.9 0.6 2 0.4 4.2 0.5 6.3C384.9 132.3 384.9 132.3 384.8 132.3z" class="a"/><path d="M389 111.3c-0.8 3.2-2.9 5.5-5.8 5.8 -3 0.3-5-1-5.8-4 -1-3.8 0.4-7 3.1-9.5 0.7-0.6 2.8-0.9 3.2-0.4C385.7 105.7 387.3 108.6 389 111.3z" class="a"/><path d="M59.4 185.1c-0.3 1.9-0.5 3.2-0.7 4.5 -0.8 6.2-1.2 6.7-7.3 6.8 -7.5 0.2-14-2.5-19.9-7 -1-0.8-1.7-2.8-1.6-4.2 0.1-0.9 1.8-2.2 3-2.4C41.9 181.4 50.7 182.2 59.4 185.1z"/><path d="M227.4 101.2c-9.3 8.7-18.4 17.2-27.8 26.1 -1.1-4-0.3-7.2 1.8-10.1 5.8-8 13.5-14.1 21-20.4 5.8-4.8 5.9-4.7 12.2-0.2 4 2.9 6.6 6.8 8.1 11.4 2.4 7.1 3.2 14.4 1.7 21.8 -1.5 7.2-6.4 11.4-12.6 14.5 -5.5 2.7-11.3 4.3-17.6 3.9 -3.2-0.2-6.5 0-9.7 0 -4.3 0-6.4-2.4-5.2-6.5 0.9-2.9 2.1-6 4.1-8.3 7.7-9.4 15.7-18.6 23.7-27.7C228.3 104.3 229.2 103.4 227.4 101.2z"/><path d="M217.6 92.4c-1.4 2-2.4 4.3-4.1 5.9 -3.4 3.2-7 6-10.7 8.8 -1.8 1.4-3.4 0.8-3.5-1.6 -0.2-3.3-0.2-6.7 0-10 0-0.7 0.9-1.9 1.5-2 5.4-0.9 10.8-1.6 16.2-2.4C217.1 91.5 217.3 91.9 217.6 92.4z"/><path d="M284.5 135.1c-1.7 4.8-3.4 9.6-5.2 14.3 -0.4 0.9-1.4 1.9-2.3 2.3 -1.2 0.4-2.9 0.7-3.9 0.1 -0.9-0.6-1.7-2.3-1.7-3.4 0.3-4.7 3.7-7.7 6.9-10.6 1.5-1.4 3.4-2.3 5.2-3.4C283.8 134.6 284.1 134.9 284.5 135.1z"/><path d="M105.3 136.1c-4.8 0-9.2 0-13.7 0 0.6-3.7 3.8-6.6 7.2-6.5C102.2 129.6 104.9 132.1 105.3 136.1z"/></svg>
